<?xml version="1.0" encoding="UTF-8"?>
<svg width="820" height="256" version="1.1" viewBox="0 0 820 256" xml:space="preserve" xmlns="http://www.w3.org/2000/svg" xmlns:xlink="http://www.w3.org/1999/xlink"><defs><linearGradient id="linearGradient6704"><stop stop-color="#ffeb9b" offset="0"/><stop stop-color="#fedb4f" offset=".4"/><stop stop-color="#fecc04" offset="1"/></linearGradient><radialGradient id="radialGradient6706" cx="108.58" cy="179.63" r="105.81" gradientTransform="matrix(1.35 -.92183 .26312 .38534 -84.362 178.42)" gradientUnits="userSpaceOnUse" xlink:href="#linearGradient6704"/><radialGradient id="radialGradient1124" cx="349.73" cy="64.289" r="105.81" gradientTransform="matrix(1.16 -.81142 .27025 .38634 -312.82 406.6)" gradientUnits="userSpaceOnUse" xlink:href="#linearGradient6704"/></defs><path d="m391.68 76.908-3 3v16.365h15.746l3-3h-3v-13.365h-9.7461l-3-3zm318.99 0-3 3v16.365h15.746v-0.003907l0.0039 0.003907 3-3h-3.0039v-13.365h-9.7441l-3.002-3zm-351.72 0.125-3 3v91.742h14.383l3-3h-3v-88.742h-8.3809l-3.002-3zm-76.99 4.959-2.998 3v86.783h36.447c17.357 0 25.662-7.3141 25.662-22.936v-1.2402c-0.12398-12.026-5.8252-18.72-17.604-20.58 9.7942-2.4795 15.621-9.7939 15.621-20.084v-0.86719c-0.12398-14.133-8.8026-21.076-26.035-21.076h-28.094l-2.998-3h-0.00196zm352.96 0-3 3v86.783h14.506l3-3h-3v-18.199l12.77-16.736 22.439 37.936h15.746l3-3h-4.7617l-27.373-46.59 28.514-37.193h-15.592l1.7324-3-3 3-33.475 43.766-0.12305-43.766h-8.3808l-3.002-3zm117.78 3.7188-3 3-3.8438 16.117h-5.6524l-3.002-3-3 3v10.414h11.283v37.938c0 13.513 5.7017 19.713 18.348 19.713 5.083 0 10.91-1.24 15.125-3.0996l3-3.002-3.3691 1.084-1.4902-7.752c-2.6035 0.99182-5.207 1.4863-7.8106 1.4863-6.9427 0-9.2988-2.7267-9.2988-10.537v-35.83h16.49l3-3h-3v-7.4141h-16.49v-16.117h-4.2891l-3-3zm-459.36 9.4473h16.115c10.786 0 15.496 3.9667 15.496 12.77v0.99219c0 8.6784-4.9587 14.01-13.018 14.01h-18.596v-27.77l0.00196-0.001953zm99.082 6.6699-3 3v66.947h14.381l3-3h-3v-63.947h-8.3809l-3-3zm318.99 0-3 3v66.947h14.381l3-3h-3v-63.947h-8.3809l-3-3zm-285.51 0.00196-3 3v66.947h14.381l3-3h-3v-28.986c0-16.241 6.3224-24.918 18.225-24.918 9.9182 0 14.504 5.4552 14.504 17.48v39.424h14.506l3-3h-3v-28.986c0-16.241 6.3224-24.918 18.225-24.918 9.7942 0 14.381 5.4552 14.381 17.48v39.424h14.508l3-3h-3v-38.035c0-18.473-7.4392-27.027-23.309-27.027-12.026 0-20.706 5.33-25.293 15.248-2.7275-10.29-9.916-15.248-21.941-15.248-11.902 0-20.455 5.2068-25.166 14.877l-2.2324-13.762h-4.7852l-3-3h-0.00195zm126.7 0-3 3v89.264h14.381l3-3h-3v-29.109c5.331 6.9427 13.639 10.91 24.053 10.91 17.357 0 27.275-10.29 27.275-28.639v-12.027c0-18.101-9.795-28.514-27.027-28.514-12.026 0-21.325 5.083-26.408 13.762l-3.2207-12.646h-3.0508l-3-3h-0.00195zm32.209 12.795c10.166 0 15.994 6.6945 15.994 18.473v10.662c0 11.654-5.9522 18.473-15.994 18.473-12.894 0-20.828-8.1831-20.828-21.572v-4.8359c0-13.389 7.8106-21.197 20.828-21.197v-0.00195zm-291.47 17.479h19.465c9.1743 0 13.885 4.7113 13.885 14.01v1.3633c0 10.166-4.34 14.133-15.25 14.133h-18.1v-29.506z" fill="#fecc04" stroke-width=".0074974"/><path d="m217.16 55.804c-3.6651-0.04601-7.1006 0.30272-9.3555 0.5-14.634 1.2803-31.687 6.7354-49.328 13.156-16.727 6.088-52.578 20.341-76.826 37.32-60.112 42.091-63.398 82.358-53.156 96.984 1.1734 1.4835 2.4367 2.8696 3.7988 4.2402 15.17 15.173 49.737 8.8847 80.227-4.6152l16.432 7.7422-3.7109-13.904c3.1077-1.6464 6.1046-3.3534 9.0098-5.1035l1.7891 18.461 53.232-43.01-1.9453-17.727c5.13-5.3764 10.397-11.39 15.715-18.223 12.986-16.686 20.672-28.009 26.598-39.49 5.9687-11.566 8.1694-22.623 3.375-30.291-2.9965-4.7924-9.745-5.9643-15.854-6.041z" fill="url(#radialGradient1124)" stroke-width=".011"/><path d="m128.95 211.13 7.087-0.54672-1.7953-18.548-9.0287 5.0962z" fill="#e5b804" stroke-width=".011"/><path d="m183.22 153-6.5 5.1816 1.1504 11.828 6.6309-5.3418zm-9.0137 7.1836-6.6094 5.2676 1.1602 11.902 6.6035-5.3203zm-9.1211 7.2695-6.5684 5.2344 1.168 11.975 6.5625-5.2871zm-9.0801 7.2363-6.8086 5.4277 1.1719 12.051 6.8066-5.4824zm-9.3203 7.4297-7.1055 5.6621 1.1738 12.135 7.1074-5.7266z" fill="#fff" stroke-width=".0071962"/><g transform="translate(4.0763,1.9645)" stroke-width=".011"><path d="m185.19 165.61 2.175-4.0109-1.5269-16.601-2.6056 2.776z" fill="#e5b804"/><path d="m159.11 65.9-26.53-11.599s-9.5737 2.8926-10.124 6.9485c-0.82938 6.111 8.5066 15.583 8.5066 15.583z" fill="#cba303"/><path d="m159.11 65.9-26.53-11.599s-9.5737 2.8926-10.124 6.9485c-0.82938 6.111 11.912 14.156 11.912 14.156z" fill="#e5b804"/></g><path d="m207.8 56.302c-14.634 1.2803-31.688 6.7372-49.329 13.158-16.727 6.088-52.577 20.34-76.825 37.319-60.112 42.091-63.397 82.357-53.156 96.984 1.1734 1.4835 2.437 2.871 3.7991 4.2417 20.935 20.94 78.851 1.0779 111.94-22.332 13.354-9.4472 35.654-24.303 58.804-54.048 12.986-16.686 20.673-28.009 26.598-39.49 5.9688-11.566 8.1698-22.623 3.3754-30.291-4.7944-7.6678-19.196-6.0676-25.209-5.5416z" fill="url(#radialGradient6706)" stroke-width="2.3849"/><path d="m197.77 31.158s-10.337 4.6645-13.402 9.1133c-7.9913 11.6-15.232 38.057-15.232 38.057l5.4824 3.0605 0.65039-4.9648 25.879-8.0371z" fill="#cba303" stroke-width=".011"/><path d="m174.62 81.388 26.528-13.002-3.376-37.228s-10.338 4.6637-13.403 9.1125c-7.9913 11.6-9.7494 41.118-9.7494 41.118z" fill="#e5b804" stroke-width=".011"/><path d="m233.01 61.844c3.3097 5.7326-1.207 14.485-7.1758 26.051-5.9252 11.482-13.611 22.805-26.598 39.49-23.15 29.745-45.45 44.6-58.805 54.047-33.091 23.41-91.006 43.272-111.94 22.332 1.1734 1.4835 2.4367 2.8715 3.7988 4.2422 20.935 20.94 78.85 1.0775 111.94-22.332 13.354-9.4472 35.654-24.304 58.805-54.049 12.986-16.686 20.672-28.009 26.598-39.49 5.9687-11.566 8.1713-22.623 3.377-30.291z" opacity=".1" stroke-width="2.3849"/><g transform="translate(4.0763,1.9645)" stroke-width=".011"><path d="m211.83 91.076-13.611 15.459h-6.3555l0.99414 6.0879s25.246 4.605 38.291 1.752c4.3201-0.94483 10.738-7.791 10.738-7.791z" fill="#cba303"/><path d="m211.83 91.077 30.057 15.508s-6.4183 6.8456-10.738 7.7904c-13.045 2.853-39.285-7.8405-39.285-7.8405z" fill="#e5b804"/></g><g fill="#212121" stroke-width=".0074974"><path d="m391.69 76.91v16.365h15.746v-16.365h-15.746zm318.99 0v16.365h15.746v-16.365h-15.746zm-351.73 0.12109v91.744h14.381v-91.744h-14.381zm275.97 4.9551v86.783h14.506v-21.199l12.77-16.738 22.439 37.938h15.746l-29.137-49.59 28.516-37.193h-16.861l-33.473 43.764-0.125-43.764h-14.381zm-352.96 0.003906v86.785h36.447c17.357 0 25.664-7.3142 25.664-22.936v-1.2402c-0.12398-12.026-5.8274-18.721-17.605-20.58 9.7942-2.4795 15.621-9.7942 15.621-20.084v-0.86914c-0.12398-14.133-8.8026-21.074-26.035-21.074l-34.092-0.001954zm470.74 3.7227-3.8418 16.117h-11.654v10.414h11.281v37.938c0 13.513 5.7035 19.711 18.35 19.711 5.0831 0 10.91-1.24 15.125-3.0996l-1.8594-9.6699c-2.6035 0.99182-5.207 1.4883-7.8106 1.4883-6.9427 0-9.2988-2.7286-9.2988-10.539v-35.828h16.488v-10.414h-16.488v-16.117h-10.291zm-456.36 6.4434h16.115c10.786 0 15.498 3.9688 15.498 12.771v0.99024c0 8.6784-4.9587 14.01-13.018 14.01h-18.598l0.00196-27.771zm294.94 8.5566c-12.026 0-21.325 5.0838-26.408 13.762l-3.2227-12.646-9.0508 0.00196v89.264h14.381v-32.111c5.331 6.9427 13.638 10.91 24.053 10.91 17.357 0 27.275-10.29 27.275-28.639v-12.025c0-18.101-9.7946-28.516-27.027-28.516zm-127.2 0.00391c-11.902 0-20.455 5.207-25.166 14.877l-2.2324-13.762-10.785-0.00195v66.947h14.381v-31.984c0-16.241 6.3224-24.92 18.225-24.92 9.9182 0 14.506 5.4545 14.506 17.48v39.426h14.504v-31.986c0-16.241 6.3224-24.92 18.225-24.92 9.7942 0 14.381 5.4564 14.381 17.482v39.424h14.506v-41.035c0-18.473-7.4392-27.027-23.309-27.027-12.026 0-20.704 5.332-25.291 15.25-2.7275-10.29-9.9176-15.25-21.943-15.25zm-71.654 1.1133v66.947h14.381v-66.947h-14.381zm318.99 0v66.947h14.381v-66.947h-14.381zm-123.61 9.793c10.166 0 15.994 6.6964 15.994 18.475v10.662c0 11.654-5.952 18.473-15.994 18.473-12.894 0-20.828-8.1828-20.828-21.572v-4.8359c0-13.39 7.8107-21.201 20.828-21.201zm-291.47 17.479h19.463c9.1743 0 13.885 4.7119 13.885 14.01v1.3633c0 10.166-4.3382 14.133-15.248 14.133h-18.102l0.00196-29.506z" fill="#212121"/></g><path d="m391.69 76.91v1l14.738-2e-3v15.365l1.002 2e-3v-16.365zm318.99 0v1l14.738-2e-3v15.365l1.002 2e-3v-16.365zm-351.73 0.12109v0.96484h13.381v90.779h1v-91.744zm275.97 4.9551v1h13.381l4e-3 44.23 1.1211-1.4668-0.125-43.764zm47.979 0-0.76563 1h15.627l-27.748 36.193 29.135 49.59h1.2344l-29.137-49.59 28.516-37.193zm-400.94 0.0059v1h33.094c17.233 0 25.911 6.9432 26.035 21.076v0.86719c0 5.7077-1.8001 10.495-5.0684 14.055 3.8982-3.6392 6.0684-8.7915 6.0684-15.055v-0.86719c-0.12398-14.133-8.8026-21.076-26.035-21.076zm470.74 3.7207-0.23828 1h9.5273v16.117h16.49v9.4141h1v-10.414h-16.49v-16.117zm-457.36 6.4433v28.773h18.596c4.1322 0 7.4418-1.4097 9.6934-3.9453-2.1889 1.9039-5.1388 2.9453-8.6934 2.9453h-18.596v-27.773zm295.94 8.5586c-9.4914 0-17.273 3.1764-22.635 8.7774 5.3108-4.9794 12.721-7.7774 21.635-7.7774 17.233 0 27.027 10.413 27.027 28.514v12.027c0 9.0923-2.4389 16.201-7.0078 21.064 5.2136-4.8649 8.0078-12.329 8.0078-22.064v-12.027c0-18.101-9.7946-28.514-27.027-28.514zm-127.2 4e-3c-8.6079 0-15.455 2.7366-20.373 7.9023 4.8314-4.5199 11.336-6.9023 19.373-6.9023 12.026 0 19.163 4.7953 22.129 15.865 0.25694-0.55555 0.53197-1.0905 0.81445-1.6172-2.7664-10.324-9.9041-15.248-21.943-15.248zm47.234 0c-8.6023 0-15.481 2.7407-20.385 7.9238 4.8238-4.5346 11.353-6.9238 19.385-6.9238 15.869 0 23.309 8.5524 23.309 27.025v40.037h1v-41.037c0-18.473-7.4392-27.025-23.309-27.025zm50.332 1.1094-9.0508 2e-3v1.002l8.0508-2e-3 3.3301 13.057c0.28316-0.48341 0.58352-0.95126 0.89258-1.4121zm-169.22 2e-3v1h13.381v65.947h1l6e-3 -66.947zm33.471 0v1l9.7852 4e-3 2.3438 14.445c0.28165-0.57813 0.57966-1.1395 0.88867-1.6856l-2.2324-13.76zm285.52 0v1h13.381v65.947h1l6e-3 -66.947zm25.783 0v1h11.416l0.23828-1zm24.789 10.414v36.828c-4e-5 7.8105 2.3542 10.539 9.2969 10.539 2.6036 0 5.207-0.49646 7.8106-1.4883l1.7539 9.1172c0.37411-0.14664 0.75257-0.29157 1.1055-0.44726l-1.8594-9.6699c-2.6035 0.99182-5.207 1.4883-7.8106 1.4883-6.9427 0-9.2988-2.7286-9.2988-10.539v-35.828zm-268.8 4.7598c-4.3835 4.0602-6.6719 11.056-6.6719 20.791v30.984h1v-31.984c0-8.9718 1.9382-15.623 5.6719-19.791zm-47.236 2e-3c-4.3819 4.0606-6.6699 11.054-6.6699 20.787v30.986h1v-31.986c0-8.9696 1.938-15.619 5.6699-19.787zm126.14 0.67187c-3.9382 3.631-6.1152 9.1079-6.1152 16.146v4.8379c0 13.389 7.9342 21.57 20.828 21.57 4.8982 0 8.8151-1.632 11.551-4.6465-2.6593 2.3746-6.2226 3.6465-10.551 3.6465-12.894 0-20.828-8.1828-20.828-21.572v-4.8359c0-6.4186 1.8125-11.538 5.1152-15.146zm-245.63 6.3418-2 0.59375c11.813 1.8649 18.459 6.7331 18.605 20.986v1.2402c0 7.0625-1.7037 12.421-5.168 16.18 4.1395-3.7823 6.168-9.4666 6.168-17.18v-1.2402c-0.0849-8.2325-2.8078-13.988-8.2852-17.379-1.8599-1.1786-4.8706-2.4988-9.3203-3.2012zm-31.125 5.082v30.508h18.1c6.0522 0 10.076-1.2281 12.465-4.0508-2.4549 2.1112-6.1851 3.0508-11.465 3.0508h-18.1v-29.508zm366.31 0.81641-13.354 17.51v21.342h1.125v-21.199l12.77-16.738zm-95.674 27.842v33.334h1v-32.111c-0.34337-0.39727-0.67813-0.80347-1-1.2226z" color="#000000" fill="#848484" style="-inkscape-stroke:none"/></svg>
