<?xml version="1.0" encoding="UTF-8"?>
<svg width="820" height="256" version="1.1" viewBox="0 0 820 256" xml:space="preserve" xmlns="http://www.w3.org/2000/svg" xmlns:xlink="http://www.w3.org/1999/xlink"><defs><linearGradient id="linearGradient6704"><stop stop-color="#ffeb9b" offset="0"/><stop stop-color="#fedb4f" offset=".4"/><stop stop-color="#fecc04" offset="1"/></linearGradient><radialGradient id="radialGradient6706" cx="108.58" cy="179.63" r="105.81" gradientTransform="matrix(1.35 -.92183 .26312 .38534 -84.362 178.42)" gradientUnits="userSpaceOnUse" xlink:href="#linearGradient6704"/><radialGradient id="radialGradient1124" cx="349.73" cy="64.289" r="105.81" gradientTransform="matrix(1.16 -.81142 .27025 .38634 -312.82 406.6)" gradientUnits="userSpaceOnUse" xlink:href="#linearGradient6704"/></defs><g fill="#fecc04" stroke-width=".0074974"><path d="m281.96 81.992-3 3v86.783h36.449c17.357 0 25.662-7.3145 25.662-22.936v-1.2402c-0.12398-12.026-5.8257-18.72-17.604-20.58 9.7942-2.4795 15.621-9.7939 15.621-20.084v-0.86719c-0.12398-14.133-8.8024-21.076-26.035-21.076h-28.094l-3-3zm11.381 13.166h16.117c10.786 0 15.496 3.9672 15.496 12.77v0.99219c0 8.6784-4.9591 14.01-13.018 14.01h-18.596v-27.771zm0 36.945h19.465c9.1743 0 13.885 4.7115 13.885 14.01v1.3633c0 10.166-4.34 14.133-15.25 14.133h-18.1v-29.506z"/><path d="m358.95 77.033-3 3v91.742h14.383l3-3h-3v-88.742h-8.3809l-3.002-3z"/><path d="m391.68 76.908-3 3v16.365h15.746l3-3h-3v-13.365h-9.7461l-3-3zm0.74414 24.92-3 3v66.947h14.381l3-3h-3v-63.947h-8.3809l-3-3z"/><path d="m425.9 101.83-3 3v66.947h14.381l3-3h-3v-28.986c0-16.241 6.3228-24.918 18.225-24.918 9.9182 0 14.504 5.4547 14.504 17.48v39.424h14.506l3-3h-3v-28.986c0-16.241 6.3228-24.918 18.225-24.918 9.7942 0 14.381 5.4547 14.381 17.48v39.424h14.506l3-3h-3v-38.035c0-18.473-7.4376-27.027-23.307-27.027-12.026 0-20.706 5.3299-25.293 15.248-2.7275-10.29-9.9176-15.248-21.943-15.248-11.902 0-20.455 5.2068-25.166 14.877l-2.2324-13.762h-4.7852l-3-3z"/><path d="m552.6 101.83-3 3v89.264h14.381l3-3h-3v-29.109c5.331 6.9427 13.639 10.91 24.053 10.91 17.357 0 27.275-10.29 27.275-28.639v-12.027c0-18.101-9.7946-28.514-27.027-28.514-12.026 0-21.325 5.0833-26.408 13.762l-3.2226-12.646h-3.0508l-3-3zm32.209 12.795c10.166 0 15.994 6.6948 15.994 18.473v10.662c0 11.654-5.952 18.473-15.994 18.473-12.894 0-20.828-8.1828-20.828-21.572v-4.8359c0-13.389 7.8105-21.199 20.828-21.199z"/><path d="m634.92 81.992-3 3v86.783h14.506l3-3h-3v-18.199l12.77-16.736 22.439 37.936h15.746l3-3h-4.7617l-27.373-46.59 28.514-37.193h-15.592l1.7324-3-3 3-33.475 43.764-0.12305-43.764h-8.3809l-3.002-3z"/><path d="m710.67 76.908-3 3v16.365h15.746v-0.0039l4e-3 0.0039 3-3h-3.004v-13.365h-9.7442l-3.002-3zm0.74414 24.92-3 3v66.947h14.381l3-3h-3v-63.947h-8.3809l-3-3z"/><path d="m752.7 85.711-3 3-3.8438 16.117h-5.6524l-3.002-3-3 3v10.414h11.283v37.938c0 13.513 5.702 19.713 18.348 19.713 5.083 0 10.91-1.24 15.125-3.0996l3-3.002-3.3691 1.084-1.4902-7.752c-2.6035 0.99182-5.207 1.4863-7.8105 1.4863-6.9427 0-9.2988-2.7266-9.2988-10.537v-35.83h16.49l3-3h-3v-7.4141h-16.49v-16.117h-4.2891l-3-3z"/></g><path d="m217.16 55.804c-3.6651-0.04601-7.1006 0.30272-9.3555 0.5-14.634 1.2803-31.687 6.7354-49.328 13.156-16.727 6.088-52.578 20.341-76.826 37.32-60.112 42.091-63.398 82.358-53.156 96.984 1.1734 1.4835 2.4367 2.8696 3.7988 4.2402 15.17 15.173 49.737 8.8847 80.227-4.6152l16.432 7.7422-3.7109-13.904c3.1077-1.6464 6.1046-3.3534 9.0098-5.1035l1.7891 18.461 53.232-43.01-1.9453-17.727c5.13-5.3764 10.397-11.39 15.715-18.223 12.986-16.686 20.672-28.009 26.598-39.49 5.9687-11.566 8.1694-22.623 3.375-30.291-2.9965-4.7924-9.745-5.9643-15.854-6.041z" fill="url(#radialGradient1124)" stroke-width=".011"/><path d="m128.95 211.13 7.087-0.54672-1.7953-18.548-9.0287 5.0962z" fill="#e5b804" stroke-width=".011"/><path d="m183.22 153-6.5 5.1816 1.1504 11.828 6.6309-5.3418zm-9.0137 7.1836-6.6094 5.2676 1.1602 11.902 6.6035-5.3203zm-9.1211 7.2695-6.5684 5.2344 1.168 11.975 6.5625-5.2871zm-9.0801 7.2363-6.8086 5.4277 1.1719 12.051 6.8066-5.4824zm-9.3203 7.4297-7.1055 5.6621 1.1738 12.135 7.1074-5.7266z" fill="#fff" stroke-width=".0071962"/><g transform="translate(4.0763,1.9645)" stroke-width=".011"><path d="m185.19 165.61 2.175-4.0109-1.5269-16.601-2.6056 2.776z" fill="#e5b804"/><path d="m159.11 65.9-26.53-11.599s-9.5737 2.8926-10.124 6.9485c-0.82938 6.111 8.5066 15.583 8.5066 15.583z" fill="#cba303"/><path d="m159.11 65.9-26.53-11.599s-9.5737 2.8926-10.124 6.9485c-0.82938 6.111 11.912 14.156 11.912 14.156z" fill="#e5b804"/></g><path d="m207.8 56.302c-14.634 1.2803-31.688 6.7372-49.329 13.158-16.727 6.088-52.577 20.34-76.825 37.319-60.112 42.091-63.397 82.357-53.156 96.984 1.1734 1.4835 2.437 2.871 3.7991 4.2417 20.935 20.94 78.851 1.0779 111.94-22.332 13.354-9.4472 35.654-24.303 58.804-54.048 12.986-16.686 20.673-28.009 26.598-39.49 5.9688-11.566 8.1698-22.623 3.3754-30.291-4.7944-7.6678-19.196-6.0676-25.209-5.5416z" fill="url(#radialGradient6706)" stroke-width="2.3849"/><path d="m197.77 31.158s-10.337 4.6645-13.402 9.1133c-7.9913 11.6-15.232 38.057-15.232 38.057l5.4824 3.0605 0.65039-4.9648 25.879-8.0371z" fill="#cba303" stroke-width=".011"/><path d="m174.62 81.388 26.528-13.002-3.376-37.228s-10.338 4.6637-13.403 9.1125c-7.9913 11.6-9.7494 41.118-9.7494 41.118z" fill="#e5b804" stroke-width=".011"/><path d="m233.01 61.844c3.3097 5.7326-1.207 14.485-7.1758 26.051-5.9252 11.482-13.611 22.805-26.598 39.49-23.15 29.745-45.45 44.6-58.805 54.047-33.091 23.41-91.006 43.272-111.94 22.332 1.1734 1.4835 2.4367 2.8715 3.7988 4.2422 20.935 20.94 78.85 1.0775 111.94-22.332 13.354-9.4472 35.654-24.304 58.805-54.049 12.986-16.686 20.672-28.009 26.598-39.49 5.9687-11.566 8.1713-22.623 3.377-30.291z" opacity=".1" stroke-width="2.3849"/><g transform="translate(4.0763,1.9645)" stroke-width=".011"><path d="m211.83 91.076-13.611 15.459h-6.3555l0.99414 6.0879s25.246 4.605 38.291 1.752c4.3201-0.94483 10.738-7.791 10.738-7.791z" fill="#cba303"/><path d="m211.83 91.077 30.057 15.508s-6.4183 6.8456-10.738 7.7904c-13.045 2.853-39.285-7.8405-39.285-7.8405z" fill="#e5b804"/></g><g fill="#241f31" stroke-width=".0074974"><path d="m281.96 81.991v86.784h36.449c17.357 0 25.663-7.3146 25.663-22.936v-1.2398c-0.12398-12.026-5.8269-18.721-17.605-20.58 9.7942-2.4795 15.621-9.7942 15.621-20.084v-0.86784c-0.12398-14.133-8.8024-21.076-26.035-21.076zm14.381 47.111h19.464c9.1743 0 13.885 4.7111 13.885 14.009v1.3638c0 10.166-4.3392 14.133-15.249 14.133h-18.101zm0-36.945h16.117c10.786 0 15.497 3.9673 15.497 12.77v0.99182c0 8.6784-4.9591 14.009-13.018 14.009h-18.597z"/><path d="m358.95 77.032v91.743h14.381v-91.743z"/><path d="m392.43 101.83v66.948h14.381v-66.948zm-0.74386-24.919v16.365h15.745v-16.365z"/><path d="m425.9 101.83v66.948h14.381v-31.986c0-16.241 6.3228-24.919 18.225-24.919 9.9182 0 14.505 5.455 14.505 17.481v39.425h14.505v-31.986c0-16.241 6.3228-24.919 18.225-24.919 9.7942 0 14.381 5.455 14.381 17.481v39.425h14.505v-41.036c0-18.473-7.4386-27.027-23.308-27.027-12.026 0-20.704 5.331-25.291 15.249-2.7275-10.29-9.9182-15.249-21.944-15.249-11.902 0-20.456 5.207-25.167 14.877l-2.2316-13.761z"/><path d="m552.6 101.83v89.263h14.381v-32.11c5.331 6.9427 13.637 10.91 24.052 10.91 17.357 0 27.275-10.29 27.275-28.639v-12.026c0-18.101-9.7942-28.515-27.027-28.515-12.026 0-21.324 5.0831-26.407 13.761l-3.2234-12.646zm14.381 30.994c0-13.39 7.8106-21.2 20.828-21.2 10.166 0 15.993 6.6948 15.993 18.473v10.662c0 11.654-5.9509 18.473-15.993 18.473-12.894 0-20.828-8.1825-20.828-21.572z"/><path d="m634.92 168.77h14.505v-21.2l12.77-16.737 22.44 37.937h15.745l-29.135-49.591 28.515-37.193h-16.861l-33.474 43.764-0.12398-43.764h-14.381z"/><path d="m711.42 101.83v66.948h14.381v-66.948zm-0.74387-24.919v16.365h15.745v-16.365z"/><path d="m762.99 101.83v-16.117h-10.29l-3.8433 16.117h-11.654v10.414h11.282v37.937c0 13.513 5.7029 19.712 18.349 19.712 5.0831 0 10.91-1.2398 15.125-3.0994l-1.8596-9.6702c-2.6035 0.99182-5.207 1.4877-7.8106 1.4877-6.9427 0-9.2983-2.7275-9.2983-10.538v-35.829h16.489v-10.414z"/></g></svg>
