<?xml version="1.0" encoding="UTF-8"?>
<svg width="256" height="256" version="1.1" viewBox="0 0 256 256" xml:space="preserve" xmlns="http://www.w3.org/2000/svg" xmlns:xlink="http://www.w3.org/1999/xlink"><defs><linearGradient id="linearGradient6704"><stop stop-color="#ffeb9b" offset="0"/><stop stop-color="#fedb4f" offset=".4"/><stop stop-color="#fecc04" offset="1"/></linearGradient><radialGradient id="radialGradient6706" cx="108.58" cy="179.63" r="105.81" gradientTransform="matrix(1.35 -.92183 .26312 .38534 -88.438 176.46)" gradientUnits="userSpaceOnUse" xlink:href="#linearGradient6704"/><radialGradient id="radialGradient1124" cx="349.73" cy="64.289" r="105.81" gradientTransform="matrix(1.16 -.81142 .27025 .38634 -316.9 404.64)" gradientUnits="userSpaceOnUse" xlink:href="#linearGradient6704"/></defs><g><path d="m213.08 53.84c-3.6651-0.04601-7.1006 0.30272-9.3555 0.5-14.634 1.2803-31.687 6.7354-49.328 13.156-16.727 6.088-52.578 20.341-76.826 37.32-60.112 42.091-63.398 82.358-53.156 96.984 1.1734 1.4835 2.4367 2.8696 3.7988 4.2402 15.17 15.173 49.737 8.8847 80.227-4.6152l16.432 7.7422-3.7109-13.904c3.1077-1.6464 6.1046-3.3534 9.0098-5.1035l1.7891 18.461 53.232-43.01-1.9453-17.727c5.13-5.3764 10.397-11.39 15.715-18.223 12.986-16.686 20.672-28.009 26.598-39.49 5.9687-11.566 8.1694-22.623 3.375-30.291-2.9965-4.7924-9.745-5.9643-15.854-6.041z" fill="url(#radialGradient1124)" stroke-width=".011"/><path d="m124.87 209.17 7.087-0.54672-1.7953-18.548-9.0287 5.0962z" fill="#e5b804" stroke-width=".011"/><path d="m179.14 151.04-6.5 5.1816 1.1504 11.828 6.6309-5.3418zm-9.0137 7.1836-6.6094 5.2676 1.1602 11.902 6.6035-5.3203zm-9.1211 7.2695-6.5684 5.2344 1.168 11.975 6.5625-5.2871zm-9.0801 7.2363-6.8086 5.4277 1.1719 12.051 6.8066-5.4824zm-9.3203 7.4297-7.1055 5.6621 1.1738 12.135 7.1074-5.7266z" fill="#fff" stroke-width=".0071962"/><g stroke-width=".011"><path d="m185.19 165.61 2.175-4.0109-1.5269-16.601-2.6056 2.776z" fill="#e5b804"/><path d="m159.11 65.9-26.53-11.599s-9.5737 2.8926-10.124 6.9485c-0.82938 6.111 8.5066 15.583 8.5066 15.583z" fill="#cba303"/><path d="m159.11 65.9-26.53-11.599s-9.5737 2.8926-10.124 6.9485c-0.82938 6.111 11.912 14.156 11.912 14.156z" fill="#e5b804"/></g><path d="m203.72 54.338c-14.634 1.2803-31.688 6.7372-49.329 13.158-16.727 6.088-52.577 20.34-76.825 37.319-60.112 42.091-63.397 82.357-53.156 96.984 1.1734 1.4835 2.437 2.871 3.7991 4.2417 20.935 20.94 78.851 1.0779 111.94-22.332 13.354-9.4472 35.654-24.303 58.804-54.048 12.986-16.686 20.673-28.009 26.598-39.49 5.9688-11.566 8.1698-22.623 3.3754-30.291-4.7944-7.6678-19.196-6.0676-25.209-5.5416z" fill="url(#radialGradient6706)" stroke-width="2.3849"/><path d="m193.69 29.193s-10.337 4.6645-13.402 9.1133c-7.9913 11.6-15.232 38.057-15.232 38.057l5.4824 3.0605 0.65039-4.9648 25.879-8.0371z" fill="#cba303" stroke-width=".011"/><path d="m170.54 79.424 26.528-13.002-3.376-37.228s-10.338 4.6637-13.403 9.1125c-7.9913 11.6-9.7494 41.118-9.7494 41.118z" fill="#e5b804" stroke-width=".011"/><path d="m228.93 59.879c3.3097 5.7326-1.207 14.485-7.1758 26.051-5.9252 11.482-13.611 22.805-26.598 39.49-23.15 29.745-45.45 44.6-58.805 54.047-33.091 23.41-91.006 43.272-111.94 22.332 1.1734 1.4835 2.4367 2.8715 3.7988 4.2422 20.935 20.94 78.85 1.0775 111.94-22.332 13.354-9.4472 35.654-24.304 58.805-54.049 12.986-16.686 20.672-28.009 26.598-39.49 5.9687-11.566 8.1713-22.623 3.377-30.291z" opacity=".1" stroke-width="2.3849"/></g><g stroke-width=".011"><path d="m211.83 91.076-13.611 15.459h-6.3555l0.99414 6.0879s25.246 4.605 38.291 1.752c4.3201-0.94483 10.738-7.791 10.738-7.791z" fill="#cba303"/><path d="m211.83 91.077 30.057 15.508s-6.4183 6.8456-10.738 7.7904c-13.045 2.853-39.285-7.8405-39.285-7.8405z" fill="#e5b804"/></g></svg>
