<?xml version="1.0" encoding="UTF-8"?>
<svg width="256" height="256" version="1.1" viewBox="0 0 256 256" xml:space="preserve" xmlns="http://www.w3.org/2000/svg"><path d="m193.69 29.193s-0.64512 0.29202-1.6621 0.79883c-1.017 0.50681-2.405 1.2287-3.8887 2.0898-1.4837 0.86111-3.0628 1.8609-4.4629 2.9238-0.70048 0.53178-1.3554 1.0792-1.9316 1.6328-0.57553 0.55298-1.0741 1.1122-1.457 1.668-4.0958 5.9453-7.981 15.776-10.809 23.965-3.3832 1.1039-6.833 2.3203-10.289 3.5469-0.05142 0.018228-0.10088 0.032503-0.15234 0.050782l-26.457-11.568s-0.59778 0.18108-1.5039 0.51562c-0.90613 0.33456-2.1205 0.82244-3.3516 1.4375-0.61555 0.30753-1.2364 0.6481-1.8242 1.0156-0.58783 0.36753-1.1434 0.76282-1.6309 1.1836s-0.90626 0.86673-1.2207 1.334c-0.15722 0.23363-0.28833 0.47281-0.38867 0.7168-0.10035 0.24398-0.17069 0.4926-0.20508 0.74609-0.81809 6.0278 8.2003 15.266 8.4473 15.518-6.4085 2.7113-13.256 5.7892-20.205 9.1602-0.00475 0.002295-0.00893 0.005518-0.01368 0.007813-1.7224 0.83565-3.4208 1.6845-5.1426 2.5547-1.9285 0.97067-3.8416 1.9649-5.752 2.9766-2.9931 1.5904-5.9557 3.2023-8.8438 4.8809-0.6107 0.35425-1.2102 0.71223-1.8145 1.0703-1.3987 0.83021-2.772 1.6692-4.1289 2.5176-0.65321 0.40804-1.3087 0.81221-1.9512 1.2246-1.6668 1.0705-3.2949 2.1529-4.875 3.248-0.1978 0.13709-0.41301 0.26876-0.60938 0.40625-48.933 34.263-60.204 67.311-57.182 86.311 0.221 1.3905 0.51777 2.7064 0.88281 3.9414 0.77477 2.6198 1.8482 4.8837 3.1426 6.7324 1.1734 1.4835 2.4367 2.8715 3.7988 4.2422h0.001954c3.44e-4 3.4e-4 0.001608-3.5e-4 0.001953 0 0.020567 0.02056 0.043817 0.0381 0.064453 0.05859 0.55733 0.55339 1.1478 1.0698 1.7559 1.5664 0.084717 0.06921 0.15842 0.15062 0.24414 0.21875 0.12337 0.09806 0.26138 0.17958 0.38672 0.27539 0.48292 0.36916 0.98064 0.72037 1.4922 1.0566 0.19951 0.13115 0.3939 0.26831 0.59766 0.39453 0.68662 0.42529 1.3957 0.82512 2.1289 1.1953 0.047829 0.02416 0.090649 0.05419 0.13867 0.07813 0.15032 0.0749 0.31464 0.13244 0.4668 0.20507 0.58183 0.27758 1.1747 0.54207 1.7832 0.78711 0.13649 0.05501 0.26256 0.12237 0.40039 0.17578 0.13836 0.05364 0.28808 0.09252 0.42773 0.14454 0.34075 0.12673 0.69459 0.23635 1.043 0.35351 1.0829 0.3648 2.1986 0.68809 3.3516 0.96289 0.1801 0.04282 0.35343 0.0941 0.53516 0.13477 0.15242 0.0342 0.29566 0.08058 0.44922 0.11328 1.2182 0.25943 2.4818 0.45586 3.7676 0.62305 0.16223 0.02096 0.32894 0.03516 0.49219 0.05468 0.70904 0.08539 1.413 0.17962 2.1406 0.23828 0.67972 0.05481 1.3813 0.07731 2.0762 0.10938 0.14524 0.00658 0.28771 0.01588 0.43359 0.02148 0.29744 0.01167 0.58463 0.03926 0.88477 0.04688h0.001953c1.1515 0.02921 2.3219 0.02888 3.5098 0 1.8879-0.04586 3.8295-0.18395 5.7969-0.36914 0.50829-0.04785 1.0085-0.07996 1.5215-0.13672 0.67754-0.07496 1.3871-0.21839 2.0723-0.30859 1.1602-0.15371 2.3261-0.32356 3.5059-0.51954 0.69404-0.1147 1.3644-0.1778 2.0645-0.30664 0.48065-0.08846 0.9777-0.2214 1.4609-0.3164 0.9676-0.19101 1.9471-0.41831 2.9238-0.63477 2.4776-0.54712 4.9713-1.1687 7.4902-1.8691 0.66336-0.18489 1.3231-0.35789 1.9883-0.55273 0.67856-0.19833 1.3494-0.35606 2.0293-0.56446 0.93686-0.28716 1.8761-0.63387 2.8145-0.93945 0.47228-0.15408 0.9436-0.31405 1.416-0.47266 1.2806-0.42916 2.5607-0.82002 3.8398-1.2812 4.2029-1.5153 8.3685-3.2377 12.482-5.0527 0.08215-0.03624 0.16595-0.06912 0.24804-0.10547l16.428 7.7402 0.00195 0.0039 7.0879-0.54687-1.7871-18.463h0.00196l1.7891 18.461 53.23-43.01v-0.00391l2.1738-4.0078-1.5156-16.477c0.26385-0.28588 0.53245-0.5976 0.79687-0.88672 0.65855-0.71925 1.3202-1.4675 1.9824-2.209 0.56723-0.63575 1.1293-1.2387 1.6992-1.8926 0.13791-0.15821 0.27796-0.33101 0.41602-0.49024 0.96645-1.1119 1.9378-2.2712 2.9102-3.4336 0.32428-0.38834 0.64598-0.75059 0.9707-1.1445l0.00195-0.00196c0.03175-0.03851 0.06396-0.08057 0.09571-0.11914 1.4089-1.7084 2.8226-3.4637 4.2402-5.2852 4.2835-5.504 7.8268-10.287 11.084-14.822 7.2709 0.60403 15.365 0.79171 21.102-0.46289 0.54001-0.1181 1.1122-0.32785 1.7012-0.60547s1.1942-0.62242 1.7988-1.0098c0.58208-0.37293 1.1641-0.78747 1.7305-1.2168 0.05029-0.03812 0.09839-0.07491 0.14843-0.11328 0.53004-0.40648 1.0429-0.82546 1.5312-1.2402 0.05145-0.04369 0.09376-0.07949 0.14453-0.12304 1.0188-0.87277 1.9098-1.7106 2.5606-2.3477 0.01406-0.01376 0.03891-0.03722 0.05274-0.05078 0.66813-0.6554 1.0703-1.082 1.0703-1.082v-0.00196l-16.914-8.7266-2.832-1.4609c1.2013-2.0885 2.3533-4.1601 3.4199-6.2266 5.9687-11.566 8.1694-22.623 3.375-30.291-2.2486-3.5963-6.6115-5.1524-11.23-5.7383-1.5362-0.19485-3.1003-0.28359-4.625-0.30273-0.00257-3.3e-5 -0.00525 3.2e-5 -0.00781 0-3.6652-0.046021-7.1007 0.30275-9.3555 0.5-1.4451 0.12649-2.9266 0.31728-4.4238 0.5332-1.0306 0.14169-2.076 0.30774-3.127 0.48438-0.03351 0.005677-0.06609 0.009924-0.09961 0.015625l-2.375-26.178h-0.00196zm-14.447 122.78 1.1797 10.736-6.6309 5.3418-0.9668-9.9336c0.29592-0.27272 0.57367-0.49637 0.87109-0.77343 1.3352-1.2439 2.6873-2.5326 4.0508-3.8672l0.00196-0.00195c0.49393-0.48347 0.9971-1.0064 1.4941-1.502zm-8.9102 8.3633 0.94922 9.7383-6.6035 5.3203-0.91406-9.373c0.71472-0.59252 1.3856-1.1045 2.1133-1.7226 1.4442-1.2269 2.9638-2.6292 4.4551-3.9629zm-9.0762 7.7324 0.91211 9.3496-6.5625 5.2871-0.92383-9.4707c1.2593-0.95051 2.5184-1.8992 3.8379-2.9336 0.87971-0.68969 1.8318-1.503 2.7363-2.2324zm-9.0977 7.0566 0.9375 9.6035-6.8066 5.4824-0.98633-10.148c2.1858-1.5448 4.3664-3.1 6.8555-4.9375zm-9.3867 6.7305 1.0098 10.377-7.1074 5.7266-1.082-11.197c1.5448-1.012 3.1023-2.022 4.5566-3.0508 0.78148-0.55285 1.7819-1.2636 2.623-1.8555z"/></svg>
