<?xml version="1.0" encoding="UTF-8"?>
<svg width="98" height="98" version="1.1" viewBox="0 0 98 98" fill="#24292f" xmlns="http://www.w3.org/2000/svg">
 <path d="m49.041 0.81651c-27.118 0-49.041 22.084-49.041 49.405 0 21.839 14.046 40.325 33.533 46.868 2.4363 0.49187 3.3287-1.063 3.3287-2.371 0-1.1454-0.08031-5.0713-0.08031-9.1619-13.642 2.9452-16.483-5.8894-16.483-5.8894-2.1923-5.7258-5.4407-7.1974-5.4407-7.1974-4.465-3.0265 0.32524-3.0265 0.32524-3.0265 4.9528 0.32724 7.5517 5.0713 7.5517 5.0713 4.3837 7.5246 11.448 5.3985 14.289 4.0896 0.40554-3.1901 1.7055-5.3985 3.0857-6.6252-10.88-1.1454-22.328-5.3985-22.328-24.376 0-5.3985 1.9474-9.8153 5.0331-13.25-0.48685-1.2267-2.1923-6.299 0.48786-13.088 0 0 4.1408-1.309 13.477 5.0713a47.149 47.149 0 0 1 12.261-1.6362c4.1408 0 8.3618 0.57318 12.26 1.6362 9.3375-6.3803 13.478-5.0713 13.478-5.0713 2.6802 6.7888 0.9737 11.861 0.48685 13.088 3.167 3.4351 5.0341 7.8519 5.0341 13.25 0 18.977-11.448 23.148-22.409 24.376 1.7868 1.5539 3.3287 4.4981 3.3287 9.1608 0 6.6252-0.08031 11.942-0.08031 13.578 0 1.309 0.8934 2.8639 3.3287 2.373 19.486-6.5449 33.533-25.03 33.533-46.869 0.080305-27.321-21.922-49.405-48.959-49.405z" clip-rule="evenodd" fill-rule="evenodd"/>
</svg>
